<svg width="32" height="60" viewBox="0 0 32 60" fill="none" xmlns="http://www.w3.org/2000/svg">
<path d="M11.2954 19.4906C11.2954 21.2031 12.6837 22.5914 14.3961 22.5914H17.2754C19.1102 22.5914 20.5976 21.1039 20.5976 19.2691C20.5976 17.4343 19.1102 15.9468 17.2754 15.9468H14.6176C12.7828 15.9468 11.2954 14.4594 11.2954 12.6246C11.2954 10.7897 12.7828 9.30232 14.6176 9.30232H17.4969C19.2093 9.30232 20.5976 10.6906 20.5976 12.4031M15.9465 7.30896V9.30232M15.9465 22.5914V24.5847" stroke="white" stroke-width="2" stroke-linecap="round" stroke-linejoin="round"/>
<g clip-path="url(#clip0_24_33)">
<path d="M3.98677 29.4352V49.6345C3.98677 51.8674 3.98677 52.9836 4.42132 53.8365C4.8035 54.5867 5.41333 55.1965 6.16349 55.5787C7.01637 56.0133 8.13263 56.0133 10.3654 56.0133H21.5281C23.7608 56.0133 24.8772 56.0133 25.73 55.5787C26.4801 55.1965 27.09 54.5867 27.4722 53.8365C27.9067 52.9836 27.9067 51.8674 27.9067 49.6345V44.0531M21.2623 45.382V50.6977M10.6312 42.7242V50.6977M15.9468 37.4086V50.6977" stroke="white" stroke-width="2" stroke-linecap="round" stroke-linejoin="round"/>
</g>
<defs>
<clipPath id="clip0_24_33">
<rect width="31.8933" height="31.8937" fill="white" transform="matrix(-1 0 0 1 31.8936 28.1063)"/>
</clipPath>
</defs>
</svg>
