<svg width="48" height="48" viewBox="0 0 48 48" fill="none" xmlns="http://www.w3.org/2000/svg">
<rect width="48" height="48" rx="10" fill="#395FE7"/>
<path d="M20.907 16.6435C20.907 17.8422 21.8788 18.814 23.0775 18.814H25.093C26.3774 18.814 27.4186 17.7728 27.4186 16.4884C27.4186 15.2041 26.3774 14.1629 25.093 14.1629H23.2326C21.9482 14.1629 20.907 13.1216 20.907 11.8373C20.907 10.5529 21.9482 9.51168 23.2326 9.51168H25.2481C26.4468 9.51168 27.4186 10.4835 27.4186 11.6822M24.1628 8.11633V9.51168M24.1628 18.814V20.2094" stroke="white" stroke-width="2" stroke-linecap="round" stroke-linejoin="round"/>
<g clip-path="url(#clip0_7_735)">
<path d="M15.7905 23.6046V37.7442C15.7905 39.3071 15.7905 40.0885 16.0947 40.6856C16.3622 41.2107 16.7891 41.6376 17.3142 41.9051C17.9112 42.2093 18.6926 42.2093 20.2556 42.2093H28.0695C29.6325 42.2093 30.414 42.2093 31.0109 41.9051C31.536 41.6376 31.9629 41.2107 32.2305 40.6856C32.5347 40.0885 32.5347 39.3071 32.5347 37.7442V33.8372M27.8835 34.7674V38.4884M20.4416 32.907V38.4884M24.1626 29.186V38.4884" stroke="white" stroke-width="2" stroke-linecap="round" stroke-linejoin="round"/>
</g>
<defs>
<clipPath id="clip0_7_735">
<rect width="22.3256" height="22.3256" fill="white" transform="matrix(-1 0 0 1 35.3254 22.6744)"/>
</clipPath>
</defs>
</svg>
